HIERARCHY
ROOT Hips
{
	OFFSET 0.000000 105.849998 0.000068
	CHANNELS 6 Xposition Yposition Zposition Yrotation Xrotation Zrotation
	JOINT RightUpLeg
	{
		OFFSET -11.500000 -1.849998 -0.000000
		CHANNELS 3 Yrotation Xrotation Zrotation
		JOINT RightLeg
		{
			OFFSET 0.000000 -48.000000 -0.000032
			CHANNELS 3 Yrotation Xrotation Zrotation
			JOINT RightFoot
			{
				OFFSET 0.000000 -48.000000 -0.000032
				CHANNELS 3 Yrotation Xrotation Zrotation
				End Site
				{
					OFFSET 0.000000 -8.000011 19.599997
				}
			}
		}
	}
	JOINT LeftUpLeg
	{
		OFFSET 11.500000 -1.849998 -0.000000
		CHANNELS 3 Yrotation Xrotation Zrotation
		JOINT LeftLeg
		{
			OFFSET 0.000000 -48.000000 -0.000032
			CHANNELS 3 Yrotation Xrotation Zrotation
			JOINT LeftFoot
			{
				OFFSET 0.000000 -48.000000 -0.000032
				CHANNELS 3 Yrotation Xrotation Zrotation
				End Site
				{
					OFFSET 0.000000 -8.000011 19.599997
				}
			}
		}
	}
	JOINT Spine
	{
		OFFSET 0.000000 16.653999 0.000012
		CHANNELS 3 Yrotation Xrotation Zrotation
		JOINT Spine1
		{
			OFFSET 0.000000 11.311996 0.000008
			CHANNELS 3 Yrotation Xrotation Zrotation
			JOINT Spine2
			{
				OFFSET 0.000000 11.779999 0.000008
				CHANNELS 3 Yrotation Xrotation Zrotation
				JOINT Spine3
				{
					OFFSET 0.000000 11.311996 0.000008
					CHANNELS 3 Yrotation Xrotation Zrotation
					JOINT Neck
					{
						OFFSET 0.000000 12.091003 0.000008
						CHANNELS 3 Yrotation Xrotation Zrotation
						JOINT Head
						{
							OFFSET 0.000000 9.000000 0.000004
							CHANNELS 3 Yrotation Xrotation Zrotation
							End Site
							{
								OFFSET 0.000000 18.000000 0.000012
							}
						}
					}
					JOINT RightShoulder
					{
						OFFSET -3.500000 8.061005 0.000004
						CHANNELS 3 Yrotation Xrotation Zrotation
						JOINT RightArm
						{
							OFFSET -14.000000 0.000000 0.000000
							CHANNELS 3 Yrotation Xrotation Zrotation
							JOINT RightForeArm
							{
								OFFSET -29.000000 0.000000 0.000000
								CHANNELS 3 Yrotation Xrotation Zrotation
								JOINT RightHand
								{
									OFFSET -28.000000 0.000000 0.000000
									CHANNELS 3 Yrotation Xrotation Zrotation
									End Site
									{
										OFFSET -3.671997 0.561996 0.822000
									}
								}
							}
						}
					}
					JOINT LeftShoulder
					{
						OFFSET 3.500000 8.061005 0.000004
						CHANNELS 3 Yrotation Xrotation Zrotation
						JOINT LeftArm
						{
							OFFSET 14.000000 0.000000 0.000000
							CHANNELS 3 Yrotation Xrotation Zrotation
							JOINT LeftForeArm
							{
								OFFSET 29.000000 0.000000 0.000000
								CHANNELS 3 Yrotation Xrotation Zrotation
								JOINT LeftHand
								{
									OFFSET 28.000000 0.000000 0.000000
									CHANNELS 3 Yrotation Xrotation Zrotation
									End Site
									{
										OFFSET 3.671997 0.561996 0.822000
									}
								}
							}
						}
					}
				}
			}
		}
	}
}
MOTION
Frames: 20
Frame Time: 0.041667
0.0 50.759937 -2.2e-05 -6.547561 2.667272 -1.1e-05 4.055879 11.788959 2.543406 -0.646924 11.021168 -0.376596 2.495717 -2.80946 -3.489928 11.004264 -25.260579 -5.598072 0.543269 9.34749 0.310691 -4.980828 -16.749381 3.942226 5.113269 0.010623 -0.23789 0.0 -0.0 -0.0 0.0 0.0 -0.0 0.0 1e-06 -0.0 1.070056 0.000473 -0.049847 -7e-06 -3.131922 1e-06 3.125003 -8.36615 29.793446 -6.735726 -9.429438 57.502775 13.356015 -21.264288 18.465987 11.754667 -3.820455 3.897126 3.086983 8.305542 -30.433732 -6.113151 6.351614 -57.226675 2.888562 15.054242 -9.715209 9e-06 2.3e-05 -4.7e-05
0.0 50.433018 -2.3e-05 -6.255797 2.667106 -1.1e-05 3.799661 9.907036 2.615406 -1.035962 16.912841 -0.638262 2.430537 -2.315464 -3.531774 10.713022 -28.095549 -5.644162 1.04367 16.997008 0.642918 -3.402885 4.039084 3.916476 4.885167 0.009988 -0.228248 0.0 -0.0 -0.0 0.0 -0.0 -0.0 0.0 0.0 -0.0 1.022544 0.000392 -0.047633 -6e-06 -3.131922 1e-06 2.983782 -7.995031 29.798558 -6.444966 -9.080911 57.457436 13.022711 -20.469805 18.60299 12.482721 -5.948876 2.483374 2.952267 7.93427 -30.40945 -6.113152 6.351611 -57.226665 2.445124 14.316545 -9.809377 0.52893 2.368719 -0.079057
0.0 49.733479 -2.2e-05 -5.360891 2.665835 5.9e-05 2.963144 7.368956 2.744448 -1.814839 27.028546 -1.219274 2.043503 2.533972 -3.61036 9.632551 -30.958966 -5.558545 1.949176 28.373446 1.320204 -3.330016 0.137815 4.049691 4.18597 0.007122 -0.194833 -0.0 0.0 -0.0 -0.0 0.0 -0.0 -0.0 0.0 -0.0 0.876687 0.000166 -0.040842 -6e-06 -3.131924 1e-06 2.55135 -6.856363 29.814875 -5.555842 -8.009695 57.329958 12.018586 -18.01807 18.990305 14.082019 -10.524783 -0.631413 2.537804 6.795257 -30.337576 -6.113154 6.351613 -57.226675 1.095209 12.04009 -10.060932 1.482445 7.533008 -0.274069
-0.0 49.406574 -2.4e-05 -4.235049 2.664745 8.6e-05 1.879911 5.554758 2.880233 -2.442907 33.717164 -1.72798 1.465083 10.234143 -3.723801 8.138627 -30.121151 -5.260807 2.512195 34.313173 1.78628 -3.499086 -6.683878 4.091787 3.306522 0.004825 -0.153929 0.0 0.0 -0.0 0.0 0.0 -0.0 0.0 0.0 -0.0 0.692921 -6.7e-05 -0.032283 -5e-06 -3.131922 1e-06 2.008566 -5.423515 29.841602 -4.442519 -6.657868 57.194587 10.789855 -14.905518 19.409885 14.523718 -12.845096 -2.052965 2.01369 5.362013 -30.253346 -6.11315 6.351618 -57.226675 -0.585158 9.150708 -10.298764 1.457493 10.166602 -0.605793
0.0 49.805561 -2.4e-05 -2.996004 2.663753 8.9e-05 0.650648 -1.979253 3.2276 -3.585692 43.225593 -2.712892 0.631036 20.959655 -4.010559 6.508287 -26.146316 -4.860784 2.445515 33.71256 1.729742 -3.552263 -10.078214 4.056702 2.338932 0.002219 -0.108931 0.0 0.0 -0.0 0.0 -0.0 0.0 0.0 0.0 -0.0 0.490391 -0.000263 -0.022848 -3e-06 -3.131922 0.0 1.413012 -3.846161 29.878167 -3.222744 -5.165863 57.075827 9.474699 -11.450466 19.788767 12.502719 -10.818413 -0.953863 1.433538 3.78435 -30.169 -6.113152 6.351617 -57.226675 -2.418519 5.945365 -10.460803 -0.307099 7.909804 -1.166164
0.0 50.763042 -2.2e-05 -1.502646 2.663144 5.3e-05 -1.07207 -16.386206 3.861071 -5.623458 54.481093 -4.577691 -0.829604 36.904735 -4.862705 4.650943 -19.744567 -4.405325 1.899806 27.981806 1.285671 -3.478155 -10.752206 3.945446 1.173016 -0.001432 -0.054683 -0.0 -0.0 -0.0 -0.0 -0.0 0.0 -0.0 -0.0 -0.0 0.246034 -0.00041 -0.011464 -1e-06 -3.131921 0.0 0.698023 -1.944672 29.93298 -1.758595 -3.363255 56.975239 7.930002 -7.256379 20.135565 8.726257 -5.500034 1.057089 0.730078 1.882606 -30.078726 -6.113151 6.351613 -57.226658 -4.617367 2.059119 -10.518799 -3.448966 2.129101 -1.70627
0.0 51.481747 -2.2e-05 2e-06 2.66292 0.0 -3.063466 -27.554764 4.496756 -6.668285 58.47103 -5.56367 -2.362602 48.755133 -6.146387 2.866024 -13.086951 -3.994672 1.414304 22.07872 0.911742 -3.41137 -11.507967 3.844782 -1e-06 -0.00348 0.0 0.0 0.0 0.0 0.0 0.0 0.0 0.0 0.0 0.0 0.0 -0.000459 0.0 1e-06 -3.131922 -0.0 -0.017958 -0.031078 30.000004 -0.289825 -1.546573 56.920758 6.407492 -3.016956 20.368394 5.906618 -1.810291 2.045591 0.017956 -0.031078 -29.999991 -6.113151 6.351619 -57.226675 -6.831696 -1.8613 -10.426227 -5.906667 -1.81024 -2.045725
0.0 51.817455 -2.1e-05 1.536579 2.663051 -5.6e-05 -5.233602 -34.280552 5.101031 -5.843174 55.398056 -4.783796 -1.736118 45.800557 -6.015144 1.11925 -6.691637 -3.621955 1.096774 17.774447 0.681015 -3.303947 -11.809175 3.760899 -1.199507 -0.003646 0.055963 -0.0 0.0 0.0 -0.0 0.0 0.0 -0.0 0.0 0.0 -0.251589 -0.000406 0.011723 4e-06 -3.131921 -0.0 -0.746111 1.925818 30.080669 1.209824 0.311948 56.913139 4.870127 1.322867 20.48975 4.236453 -0.674434 1.93561 -0.714231 -1.98788 -29.93161 -6.113152 6.351615 -57.226675 -9.113197 -5.863361 -10.173809 -7.483124 -3.004885 -2.446873
-0.0 51.955479 -2.1e-05 3.102489 2.663897 -8.7e-05 -7.450427 -36.111552 5.599623 -3.685993 43.932586 -2.80236 1.345174 22.458244 -4.582973 -0.58026 -0.171404 -3.264255 0.823265 13.775137 0.493081 -3.047283 -9.548422 3.654696 -2.422082 -0.001381 0.11296 -0.0 -0.0 -0.0 0.0 0.0 0.0 -0.0 0.0 -0.0 -0.507811 -0.000249 0.02366 7e-06 -3.131922 1e-06 -1.483528 3.919945 30.176028 2.73815 2.2045 56.955455 3.310023 5.734398 20.493827 2.978455 -0.599491 1.261651 -1.464119 -3.981733 -29.874585 -6.113152 6.351617 -57.226678 -11.472503 -9.916264 -9.749513 -8.77662 -3.08724 -2.919668
0.0 51.971516 -2.1e-05 4.375345 2.664865 -8.6e-05 -8.995263 -33.350192 5.751441 -2.10279 30.280985 -1.449956 3.392275 1.878598 -4.122485 -1.900498 6.275822 -2.945877 0.4843 8.390874 0.274466 -2.758116 -5.924074 3.549636 -3.416112 0.002405 0.159187 -0.0 0.0 -0.0 -0.0 0.0 -0.0 -0.0 1e-06 -0.0 -0.715835 -4.1e-05 0.03335 1e-05 -3.13192 0.0 -2.07912 5.54064 30.26379 3.982235 3.740202 57.027042 2.037219 9.300936 20.408231 1.966421 -0.577078 0.699064 -2.07613 -5.602078 -29.837757 -6.113152 6.351615 -57.226661 -13.427657 -13.178724 -9.276952 -9.820589 -3.132737 -3.305518
0.0 51.783398 -1.9e-05 5.467217 2.665952 -5.5e-05 -10.066218 -28.88945 5.690327 -1.102975 17.876075 -0.685698 4.350631 -8.229108 -3.97137 -2.967429 12.414765 -2.65188 0.105419 1.892364 0.055525 -2.520631 -2.395685 3.461474 -4.269037 0.007406 0.198692 0.0 0.0 -0.0 0.0 0.0 -0.0 0.0 0.0 -0.0 -0.894018 0.000191 0.04165 1.4e-05 -3.131919 0.0 -2.58718 6.930588 30.34566 5.051811 5.054586 57.115155 0.935856 12.339491 20.270468 1.105528 -0.542453 0.347304 -2.602697 -6.991647 -29.81255 -6.113154 6.351613 -57.226658 -15.139408 -15.94613 -8.777327 -10.671483 -3.214717 -3.633081
-0.0 51.274853 -2e-05 6.289635 2.668095 0.000119 -10.736817 -24.65845 5.557859 -0.483902 8.384406 -0.274165 4.807721 -14.012756 -3.871186 -3.774078 13.430132 -2.532696 0.229696 4.077484 0.124104 -2.509708 -2.520283 3.453126 -4.911675 0.01251 0.228302 -0.0 -0.0 -0.0 -0.0 -0.0 -0.0 -0.0 -0.0 -0.0 -1.028056 0.0004 0.04789 1.7e-05 -3.131919 -1e-06 -2.967909 7.977326 30.412203 5.859442 6.042315 57.197824 0.097289 14.612162 20.126681 0.504305 -0.615853 0.081391 -3.000196 -8.038039 -29.797489 -6.113155 6.351621 -57.226678 -16.453857 -18.007599 -8.341784 -11.266907 -3.182488 -3.88951
0.0 50.75993 -2.2e-05 6.547561 2.668566 0.000158 -11.004917 -25.261248 5.598758 -0.542752 9.348365 -0.310632 4.980924 -16.749314 -3.942702 -4.056263 11.789467 -2.543622 0.646824 11.019937 0.376587 -2.495402 -2.809663 3.48987 -5.113251 0.015074 0.237492 0.0 -0.0 0.0 0.0 -0.0 0.0 0.0 1e-06 0.0 -1.070048 0.000435 0.047859 2.1e-05 -3.131919 -1e-06 -3.086914 8.30556 30.434128 6.113152 6.351613 57.226661 -0.167675 15.321675 20.074406 -4.1e-05 -2.3e-05 -7.8e-05 -3.125031 -8.366136 -29.793241 -6.11315 6.351614 -57.226668 -16.871069 -18.649545 -8.194425 -11.754689 -3.820421 -3.897268
-0.0 50.210773 -2.2e-05 6.255795 2.666894 -1.3e-05 -10.768466 -29.294265 5.710736 -1.196152 19.179776 -0.752374 3.447193 3.053267 -3.951976 -3.806575 9.913976 -2.605856 1.180898 18.963073 0.741306 -2.341191 -1.136225 3.540783 -4.885152 0.01464 0.227849 -0.0 0.0 -0.0 -0.0 0.0 0.0 -0.0 0.0 -0.0 -1.022552 0.000391 0.047633 2.5e-05 -3.13192 -0.0 -2.952316 7.934253 30.409143 5.826175 6.001721 57.194143 0.131977 14.518959 20.133306 -0.799994 2.917465 0.06949 -2.983811 -7.995016 -29.798292 -6.113153 6.351615 -57.226665 -16.399339 -17.923212 -8.360681 -12.750995 -6.500693 -2.409085
-0.0 49.628925 -2.4e-05 5.36089 2.665834 -6.1e-05 -9.651435 -31.364919 5.582559 -1.994574 29.10555 -1.362947 3.328072 -0.188809 -4.061386 -2.963943 7.598498 -2.733299 1.86283 27.585314 1.257305 -1.98975 3.283997 3.615102 -4.185954 0.010751 0.194568 0.0 -0.0 -0.0 0.0 0.0 -0.0 0.0 0.0 -0.0 -0.876683 0.000166 0.040842 2.9e-05 -3.131918 -1e-06 -2.537812 6.795256 30.337545 4.947536 4.92673 57.105508 1.043622 12.044609 20.286507 -1.610559 7.790858 0.261853 -2.551368 -6.856355 -29.814694 -6.113151 6.351619 -57.226665 -14.971116 -15.678105 -8.829917 -14.218032 -10.780091 0.675966
-0.0 49.406574 -2.4e-05 4.235052 2.664745 -8.7e-05 -8.139405 -30.121828 5.261438 -2.503774 34.314887 -1.779103 3.494148 -6.684167 -4.092393 -1.879938 5.555138 -2.880471 2.442441 33.715805 1.727962 -1.464972 10.234779 3.723921 -3.30652 0.006336 0.153842 -0.0 0.0 0.0 -0.0 0.0 0.0 -0.0 0.0 0.0 -0.692916 -6.7e-05 0.032283 3.2e-05 -3.131918 -1e-06 -2.01371 5.362013 30.253175 3.844988 3.57109 57.017518 2.177978 8.908976 20.421612 -1.457539 10.166553 0.605642 -2.008581 -5.423506 -29.841407 -6.11315 6.351617 -57.226675 -13.210189 -12.820877 -9.334749 -14.523759 -12.845047 2.052841
-0.0 49.805561 -2.4e-05 2.996004 2.663753 -9e-05 -6.509014 -26.146978 4.861303 -2.441138 33.714162 -1.725927 3.54993 -10.078526 -4.057235 -0.649211 -1.978738 -3.227853 3.583752 43.224176 2.712844 -0.632283 20.960327 4.012749 -2.338933 0.002219 0.108931 -0.0 0.0 0.0 -0.0 -0.0 -0.0 -0.0 0.0 0.0 -0.490395 -0.000265 0.022848 3.5e-05 -3.131919 -2e-06 -1.433544 3.78435 30.169017 2.634162 2.075898 56.950974 3.41619 5.435089 20.497384 0.307048 7.909769 1.166029 -1.413014 -3.846163 -29.87815 -6.113151 6.351617 -57.226675 -11.310625 -9.641869 -9.783815 -12.502753 -10.818342 0.953727
-0.0 50.763042 -2.2e-05 1.502646 2.663144 -5.3e-05 -4.651615 -19.745194 4.405709 -1.897413 27.983189 -1.284614 3.476429 -10.752378 -3.94587 1.071421 -16.385694 -3.860992 5.623598 54.479641 4.577662 0.829827 36.904902 4.86102 -1.173016 -0.001262 0.054679 -0.0 -0.0 0.0 -0.0 -0.0 0.0 -0.0 0.0 0.0 -0.246034 -0.00041 0.011464 3.8e-05 -3.131917 -2e-06 -0.730068 1.882606 30.078934 1.176704 0.270906 56.91277 4.903959 1.227086 20.488295 3.448933 2.129061 1.706135 -0.698023 -1.944677 -29.933154 -6.113152 6.351617 -57.226665 -9.062508 -5.775175 -10.181141 -8.726277 -5.499996 -1.05723
-0.0 51.481747 -2.2e-05 -2e-06 2.66292 1e-06 -2.866664 -13.087579 3.994921 -1.412602 22.080087 -0.911159 3.410247 -11.508017 -3.845184 3.062696 -27.554163 -4.496392 6.668613 58.469541 5.563797 2.36214 48.755106 6.144606 1e-06 -0.002876 -0.0 0.0 0.0 -0.0 0.0 0.0 -0.0 0.0 0.0 -0.0 -0.0 -0.000459 0.0 4.1e-05 -3.131916 -1e-06 -0.017958 -0.031078 30.000004 -0.289824 -1.546573 56.920751 6.407492 -3.01697 20.368389 5.906618 -1.810296 2.045603 0.017956 -0.031078 -29.999991 -6.113152 6.351615 -57.226678 -6.831693 -1.861293 -10.426233 -5.906674 -1.810232 -2.045726
-0.0 51.817455 -2.1e-05 -1.53658 2.663051 5.5e-05 -1.119468 -6.692195 3.622032 -1.096138 17.775605 -0.680745 3.303423 -11.809067 -3.761142 5.23274 -34.2799 -5.100423 5.844038 55.396509 4.784381 1.737782 45.800639 6.011019 1.199507 -0.002561 -0.055942 -0.0 -0.0 -0.0 -0.0 0.0 -0.0 -0.0 0.0 -0.0 0.251588 -0.000408 -0.011723 4.3e-05 -3.131916 -1e-06 0.71423 -1.98788 29.931614 -1.79181 -3.404254 56.977038 7.964699 -7.351945 20.128982 7.483077 -3.004933 2.446724 0.746107 1.925824 -30.080635 -6.113151 6.351617 -57.226675 -4.567441 2.147608 -10.519168 -4.236481 -0.674393 -1.935723
